<?xml version="1.0" encoding="UTF-8"?>
<svg width="142px" height="95px" viewBox="0 0 142 95" version="1.1" xmlns="http://www.w3.org/2000/svg" xmlns:xlink="http://www.w3.org/1999/xlink">
    <title>Logo Cité du Vin</title>
    <defs>
        <polygon id="path-2" points="9.86261346e-05 0.257390372 27.0810643 0.257390372 27.0810643 94.7002316 9.86261346e-05 94.7002316"></polygon>
        <polygon id="path-4" points="0.139402386 0.256983054 27.2201175 0.256983054 27.2201175 78.5121575 0.139402386 78.5121575"></polygon>
        <polygon id="path-6" points="0 94.7800924 141.565974 94.7800924 141.565974 0.337251534 0 0.337251534"></polygon>
        <polygon id="path-8" points="0 94.7800924 141.565974 94.7800924 141.565974 0.337251534 0 0.337251534"></polygon>
        <polygon id="path-10" points="0 94.7800924 141.565974 94.7800924 141.565974 0.337251534 0 0.337251534"></polygon>
        <polygon id="path-12" points="0 94.7800924 141.565974 94.7800924 141.565974 0.337251534 0 0.337251534"></polygon>
        <polygon id="path-14" points="0 94.7800924 141.565974 94.7800924 141.565974 0.337251534 0 0.337251534"></polygon>
        <polygon id="path-16" points="0 94.7800924 141.565974 94.7800924 141.565974 0.337251534 0 0.337251534"></polygon>
        <polygon id="path-18" points="0 94.7800924 141.565974 94.7800924 141.565974 0.337251534 0 0.337251534"></polygon>
        <polygon id="path-20" points="0 94.7800924 141.565974 94.7800924 141.565974 0.337251534 0 0.337251534"></polygon>
        <polygon id="path-22" points="0 94.7800924 141.565974 94.7800924 141.565974 0.337251534 0 0.337251534"></polygon>
    </defs>
    <g id="Symbols" stroke="none" stroke-width="1" fill="none" fill-rule="evenodd">
        <g id="Logo">
            <g>
                <g id="Fill-1-Clipped">
                    <mask id="mask-3" fill="white">
                        <use xlink:href="#path-2"></use>
                    </mask>
                    <g id="path-1"></g>
                    <path d="M19.4652875,45.9405392 C19.6383593,53.854079 15.4440107,61.0156828 8.35132015,61.332969 C2.57332466,61.5911687 0.116193693,67.1946705 0.0357519057,74.724553 C-0.0260013859,80.5247401 0.00487525985,86.327355 0.0357519057,92.1283513 C0.0487525985,94.5808441 0.433898128,94.6205049 2.3376871,94.662594 C4.48280144,94.7079206 4.19191094,94.6067455 6.33458766,94.6973987 C7.62328136,94.7508189 7.757351,94.0911553 7.74353776,92.4545409 C7.69641021,86.7709084 7.72891198,81.0840378 7.72891198,75.399596 C7.72891198,71.0409569 7.90767151,65.5548185 11.6023059,62.657963 C13.2590817,61.3588699 15.0994923,60.9363612 16.9837803,60.7963346 C19.1784598,60.6336442 21.1968173,59.9181316 22.9657241,58.1358247 C25.4382934,55.6444799 26.8188045,52.4052466 27.0276282,48.3533714 C27.0926316,47.0817984 27.0763807,24.5633784 27.0780058,4.37442223 C27.0780058,3.79407979 27.0893814,3.21292793 27.0682553,2.6342043 C26.9886261,0.373539802 26.9853759,0.329832003 25.2335325,0.291790029 C23.0884182,0.244844616 23.3801212,0.245654019 21.2358194,0.292599433 C19.4986018,0.330641406 19.4376611,0.374349205 19.4254729,2.65848641 C19.3913461,9.27131453 19.5067272,42.0044091 19.4652875,45.9405392" id="Fill-1" fill="#FFFFFF" fill-rule="nonzero" mask="url(#mask-3)"></path>
                </g>
                <g id="Fill-4-Clipped" transform="translate(13.860000, 15.840000)">
                    <mask id="mask-5" fill="white">
                        <use xlink:href="#path-4"></use>
                    </mask>
                    <g id="path-3"></g>
                    <path d="M19.6043408,29.7524654 C19.7774125,37.6660053 15.5830639,44.8276091 8.49037338,45.1448954 C2.71319045,45.4030951 0.256059481,51.0065969 0.174805153,58.5364794 C0.113051859,64.336666 0.144741047,70.1392813 0.174805153,75.9402772 C0.187805842,78.3927705 0.572951374,78.4324313 2.47674035,78.4745204 C4.62185468,78.519847 4.33096416,78.4186714 6.47364089,78.5093246 C7.7631471,78.5627453 7.89640423,77.9030812 7.88340355,76.2664673 C7.83546348,70.5828343 7.88665373,64.8959642 7.86796521,59.2115219 C7.84927673,53.6428249 8.04672474,49.3667449 11.7421717,46.4698892 C13.398135,45.1707963 15.2393581,44.7482876 17.1228335,44.6082607 C19.317513,44.4455706 21.3366831,43.7300577 23.1047774,41.9477508 C25.5773467,39.4564063 26.9578577,36.2171727 27.1666814,32.1652978 C27.2316848,30.8937246 27.215434,24.5633784 27.2170591,4.37442223 C27.2170591,3.79407979 27.2284347,3.21292793 27.2073086,2.6342043 C27.1276793,0.373539802 27.1244291,0.329832003 25.3725857,0.291790029 C23.228284,0.244844616 23.519987,0.245654019 21.3748727,0.292599433 C19.6376551,0.330641406 19.5767143,0.374349205 19.5645262,2.65848641 C19.5303993,9.27131453 19.5035854,25.7483454 19.6043408,29.7524654" id="Fill-4" fill="#FFFFFF" fill-rule="nonzero" mask="url(#mask-5)"></path>
                </g>
                <path d="M62.7412644,61.38 C54.9193156,61.38 50.49,56.1360717 50.49,48.9874375 C50.49,41.1562708 56.2052456,36.63 63.1341875,36.63 C66.9205379,36.63 69.849601,37.5639924 71.2061779,38.1387569 L71.2061779,42.6291049 C69.9210415,41.9824948 67.0634189,40.9048113 63.5985512,40.9048113 C59.3121167,40.9048113 55.4551198,43.3475606 55.4551198,49.0584851 C55.4551198,54.3399325 58.8834735,57.070064 63.5628307,57.070064 C66.9562579,57.070064 70.0655105,55.8039855 71.28,55.2292208 L71.28,59.5750797 C69.3868248,60.5449948 66.4204537,61.38 62.7412644,61.38" id="Fill-7" fill="#FFFFFF" fill-rule="nonzero"></path>
                <g id="Fill-9-Clipped">
                    <mask id="mask-7" fill="white">
                        <use xlink:href="#path-6"></use>
                    </mask>
                    <g id="path-5"></g>
                    <path d="M75.2384514,61.8899735 L79.9125222,61.8899735 L79.9125222,43.7520465 L75.2384514,43.7520465 L75.2384514,61.8899735 Z M74.9848196,38.1801115 C74.9848196,36.6867617 76.0718126,35.520411 77.5573704,35.520411 C79.0066948,35.520411 80.1653491,36.7231849 80.1653491,38.1801115 C80.1653491,39.6726519 79.0066948,40.8025795 77.5573704,40.8025795 C76.0718126,40.8025795 74.9848196,39.6726519 74.9848196,38.1801115 L74.9848196,38.1801115 Z" id="Fill-9" fill="#FFFFFF" fill-rule="nonzero" mask="url(#mask-7)"></path>
                </g>
                <g id="Fill-11-Clipped">
                    <mask id="mask-9" fill="white">
                        <use xlink:href="#path-8"></use>
                    </mask>
                    <g id="path-5"></g>
                    <path d="M90.8099917,62.3274565 C87.9113434,62.3274565 86.1721543,61.2347614 85.2663264,59.3771798 C84.6149357,58.102369 84.5062363,56.1727507 84.5062363,53.9501284 L84.5062363,47.6861533 L81.7162869,47.6861533 L81.7162869,43.7524512 L84.5062363,43.7524512 L84.5787024,39.0538628 L89.1440742,37.779052 L89.1440742,43.7524512 L94.2883704,43.7524512 L94.2883704,47.6861533 L89.1440742,47.6861533 L89.1440742,53.9137052 C89.1440742,55.0792463 89.180307,56.1363274 89.4331339,56.8275582 C89.7229986,57.8109841 90.5209324,58.3209084 91.8977902,58.3209084 C92.9839783,58.3209084 94.252137,58.029523 95.1579649,57.6288679 L95.1579649,61.4897235 C93.9985052,61.9632246 92.3688205,62.3274565 90.8099917,62.3274565" id="Fill-11" fill="#FFFFFF" fill-rule="nonzero" mask="url(#mask-9)"></path>
                </g>
                <g id="Fill-12-Clipped">
                    <mask id="mask-11" fill="white">
                        <use xlink:href="#path-10"></use>
                    </mask>
                    <g id="path-5"></g>
                    <path d="M101.039887,39.9645229 C102.742037,38.5804426 104.916024,35.9215515 106.365348,33.0805445 L109.87996,34.8288565 C108.24947,37.8892118 105.315393,40.438024 103.467505,41.5663328 L101.039887,39.9645229 Z M108.974132,50.8906632 C108.974132,48.6332362 107.379875,46.9577708 104.771897,46.9577708 C102.198541,46.9577708 100.351457,48.4503113 100.097826,50.8906632 L108.974132,50.8906632 Z M104.80813,62.291114 C98.6485015,62.291114 95.1701228,58.539528 95.1701228,52.784668 C95.1701228,47.7590805 98.431103,43.3154541 104.80813,43.3154541 C110.35099,43.3154541 113.394571,46.5206928 113.394571,52.3111669 C113.394571,52.7118216 113.394571,53.5495545 113.358338,53.9502091 L99.988321,53.9502091 C100.02536,56.4998308 102.090647,58.4302588 105.387054,58.4302588 C108.902471,58.4302588 110.604622,57.4840659 112.562015,56.3905615 L112.562015,60.3242632 C110.604622,61.3441118 108.24947,62.291114 104.80813,62.291114 L104.80813,62.291114 Z" id="Fill-12" fill="#FFFFFF" fill-rule="nonzero" mask="url(#mask-11)"></path>
                </g>
                <g id="Fill-13-Clipped">
                    <mask id="mask-13" fill="white">
                        <use xlink:href="#path-12"></use>
                    </mask>
                    <g id="path-5"></g>
                    <path d="M54.9999255,79.6616459 C51.5948184,79.6616459 49.6736587,81.6284967 49.6736587,85.3072367 C49.6736587,88.5124751 50.9780507,90.445331 54.0578648,90.445331 C55.2108827,90.445331 56.6360514,89.773526 57.3244808,88.8265238 C57.7955111,88.1344838 58.3333713,87.4189707 58.3333713,86.2898524 L58.3333713,80.3172627 C57.3913106,79.8437616 56.2318514,79.6616459 54.9999255,79.6616459 L54.9999255,79.6616459 Z M58.514537,94.2665259 L58.514537,91.4619421 C57.4275439,93.3195237 55.9653365,94.3434191 52.3911418,94.3434191 C46.9569807,94.3434191 44.8554605,90.5877864 44.8554605,85.6714681 C44.8554605,80.3528767 47.6091765,75.799981 54.5288951,75.799981 C55.9782195,75.799981 57.2101449,76.0193292 58.3333713,76.3835611 L58.3333713,67.4234622 L63.0799087,67.4234622 L63.0799087,94.2665259 L58.514537,94.2665259 Z" id="Fill-13" fill="#FFFFFF" fill-rule="nonzero" mask="url(#mask-13)"></path>
                </g>
                <g id="Fill-14-Clipped">
                    <mask id="mask-15" fill="white">
                        <use xlink:href="#path-14"></use>
                    </mask>
                    <g id="path-5"></g>
                    <path d="M84.5934371,86.1076559 C84.5934371,87.9288143 84.3043774,89.7135494 83.5789102,91.024783 C82.0579251,93.6472511 79.0135385,94.6670997 75.6446647,94.6670997 C72.2017145,94.6670997 69.086472,93.792944 67.673381,91.0976295 C66.9487188,89.7499722 66.7675531,88.00247 66.7675531,86.1076559 L66.7675531,76.1285177 L71.5140905,76.1285177 L71.5140905,86.2177349 C71.5140905,87.41889 71.6944508,88.5488171 72.1300532,89.2400479 C72.7822492,90.2963198 74.1228741,90.8070538 75.6446647,90.8070538 C77.2018832,90.8070538 78.5425081,90.2234738 79.1955096,89.2036251 C79.6295017,88.4759711 79.8114723,87.3460435 79.8114723,86.2177349 L79.8114723,76.1285177 L84.5934371,76.1285177 L84.5934371,86.1076559 Z" id="Fill-14" fill="#FFFFFF" fill-rule="nonzero" mask="url(#mask-15)"></path>
                </g>
                <g id="Fill-15-Clipped">
                    <mask id="mask-17" fill="white">
                        <use xlink:href="#path-16"></use>
                    </mask>
                    <g id="path-5"></g>
                    <path d="M99.1550401,94.2665259 L89.7352373,67.6177188 L95.1693982,67.6177188 C100.097101,81.0942901 101.075395,86.0348902 101.908757,88.4760519 C102.742118,86.1077367 103.611712,81.2027505 108.53861,67.6177188 L113.829449,67.6177188 L104.300142,94.2665259 L99.1550401,94.2665259 Z" id="Fill-15" fill="#FFFFFF" fill-rule="nonzero" mask="url(#mask-17)"></path>
                </g>
                <g id="Fill-16-Clipped">
                    <mask id="mask-19" fill="white">
                        <use xlink:href="#path-18"></use>
                    </mask>
                    <g id="path-5"></g>
                    <path d="M115.970101,94.2661212 L120.644172,94.2661212 L120.644172,76.1281938 L115.970101,76.1281938 L115.970101,94.2661212 Z M115.717275,70.5562592 C115.717275,69.062909 116.803462,67.8965586 118.28902,67.8965586 C119.738344,67.8965586 120.897804,69.0993322 120.897804,70.5562592 C120.897804,72.0487992 119.738344,73.1787268 118.28902,73.1787268 C116.803462,73.1787268 115.717275,72.0487992 115.717275,70.5562592 L115.717275,70.5562592 Z" id="Fill-16" fill="#FFFFFF" fill-rule="nonzero" mask="url(#mask-19)"></path>
                </g>
                <g id="Fill-17-Clipped">
                    <mask id="mask-21" fill="white">
                        <use xlink:href="#path-20"></use>
                    </mask>
                    <g id="path-5"></g>
                    <path d="M124.138412,94.2665259 L124.138412,76.1285989 L128.812483,76.1285989 L128.812483,79.1152984 C129.935709,77.1848703 132.579922,75.764367 135.261171,75.764367 C137.978655,75.764367 139.79031,76.7469832 140.696138,78.4596811 C141.4208,79.6616459 141.566537,81.519227 141.566537,82.8296518 L141.566537,94.2665259 L136.82,94.2665259 L136.82,83.9960027 C136.82,82.8296518 136.710496,81.66492 136.239465,80.9720702 C135.660541,80.025068 134.646014,79.6252227 133.377855,79.6252227 C132.108891,79.6252227 130.551673,80.2808395 129.682078,81.5920735 C129.174814,82.2104578 128.921183,83.1574604 128.921183,84.3238108 L128.921183,94.2665259 L124.138412,94.2665259 Z" id="Fill-17" fill="#FFFFFF" fill-rule="nonzero" mask="url(#mask-21)"></path>
                </g>
                <g id="Fill-18-Clipped">
                    <mask id="mask-23" fill="white">
                        <use xlink:href="#path-22"></use>
                    </mask>
                    <g id="path-5"></g>
                    <path d="M29.3728924,83.066888 C29.3728924,86.0851546 29.3431007,89.1026115 29.3825545,92.1200683 C29.4123462,94.4535793 29.4493845,94.5061903 31.1515354,94.5507076 C33.277211,94.6065566 32.9897617,94.6073659 35.1154374,94.5507076 C36.8441592,94.5045717 36.9480275,94.4155371 36.968157,92.1734891 C37.0164678,86.7189173 36.9923124,81.2627271 36.9923124,75.8073466 C36.9923124,70.9185482 37.2282302,68.193286 39.2331288,65.4299815 C40.3096547,63.9463449 41.6253191,62.7071476 43.1970308,61.9463084 C43.5722448,61.7650019 43.4071829,61.2356519 43.094773,61.2404752 C40.614818,61.2785502 38.9183034,61.1595678 36.4649194,61.50923 C31.7095252,62.1883199 29.4163721,66.1633013 29.4163721,74.0145173 C29.4163721,77.0271177 29.3962426,80.0486218 29.3962426,83.066888 L29.3728924,83.066888 Z" id="Fill-18" fill="#FFFFFF" fill-rule="nonzero" mask="url(#mask-23)"></path>
                </g>
            </g>
        </g>
    </g>
</svg>
