<svg xmlns="http://www.w3.org/2000/svg"
  viewBox="21.302999999999997 11.346835443037975 201.43169999999998 54.84303797468355"
  style="max-height: 500px" width="201.43169999999998" height="54.84303797468355">
  <g fill="#ffffff">
    <path
      d="m110.8 41.8h5.8c.2 1.7.9 2.8 1.9 3.5 1.1.8 2.6 1.2 4.6 1.2s3-.3 3.9-.9 1.3-1.5 1.3-2.7c0-1.8-2.5-3.2-7.5-4.3h-.2s-.7-.3-.7-.3c-2.8-.6-4.7-1.3-5.6-1.9-1.1-.6-1.9-1.5-2.3-2.7-.6-1-.8-2.3-.8-3.8 0-2.7.9-4.9 2.8-6.4s4.6-2.3 8.2-2.3 6 .8 7.8 2.3c1.9 1.7 2.9 4 3 6.8h-3.3c-1.3 0-2.2-.6-2.7-1.8-.3-.6-.7-1-1.2-1.4-1-.7-2.4-1.1-4.1-1.1s-2.9.3-3.6.9c-.8.6-1.2 1.5-1.2 2.6s1.6 2.6 4.8 3.3c.9.3 1.6.4 2.1.5 1 .3 1.9.6 2.6.8s1.3.4 1.8.5c.8.3 1.6.7 2.3 1 1.1.7 2 1.5 2.6 2.6.6 1.2.9 2.4.9 3.8 0 3-1 5.3-3 7-2 1.6-4.8 2.3-8.5 2.3s-6.6-.8-8.5-2.4c-2.1-1.6-3.2-4-3.3-7.2" />
    <path
      d="m142.3 22v18c0 2.2.4 3.9 1.2 4.9.9 1 2.3 1.5 4.2 1.5s3.3-.5 4.2-1.5 1.3-2.6 1.3-4.9v-18h5.9v18.6c0 3.6-1 6.3-3 8.1-1.8 1.8-4.6 2.8-8.5 2.8s-6.6-.9-8.5-2.8c-2-1.8-3-4.5-3-8.1v-15.5c0-.8.3-1.6.9-2.2s1.3-1 2.1-1h3z" />
    <path
      d="m162 41.8h5.8c.2 1.7.9 2.8 1.9 3.5 1.1.8 2.6 1.2 4.6 1.2s3-.3 3.9-.9 1.3-1.5 1.3-2.7c0-1.8-2.5-3.2-7.5-4.3h-.2s-.7-.3-.7-.3c-2.8-.6-4.7-1.3-5.6-1.9-1.1-.6-1.9-1.5-2.3-2.7-.6-1-.8-2.3-.8-3.8 0-2.7.9-4.9 2.8-6.4s4.6-2.3 8.2-2.3 6 .8 7.8 2.3c1.9 1.7 2.9 4 3 6.8h-3.3c-1.3 0-2.2-.6-2.7-1.8-.3-.6-.7-1-1.2-1.4-1-.7-2.4-1.1-4.1-1.1s-2.9.3-3.6.9c-.8.6-1.2 1.5-1.2 2.6s1.6 2.6 4.8 3.3c.9.3 1.6.4 2.1.5 1 .3 1.9.6 2.6.8s1.3.4 1.8.5c.8.3 1.5.7 2.3 1 1.1.7 2 1.5 2.6 2.6.6 1.2.9 2.4.9 3.8 0 3-1 5.3-3 7-2 1.6-4.8 2.3-8.5 2.3s-6.6-.8-8.5-2.4c-2.1-1.6-3.2-4-3.3-7.2" />
    <path
      d="m188.3 50.8v-25.7c0-.8.3-1.5.9-2.1s1.3-.9 2.1-.9h2.9v10.7h11.8v-10.7h6v28.7h-6v-12.8h-11.8v12.8z" />
    <path d="m214.5 50.8v-25.7c0-.8.3-1.5.9-2.1s1.3-.9 2.1-.9h2.9v28.7z" />
    <path
      d="m94.9 29.1c-3.4-11.9-20.2-17.5-37.3-12.6-13 3.8-22.5 12.5-24.5 21.7 2.8-8.6 11.9-16.3 24-19.8 17.3-5 34.1.7 37.6 12.6.5 1.8.7 3.7.6 5.6.5-2.5.4-5.1-.3-7.6" />
    <path
      d="m53.5 36.9c-1.4-1-3-1.5-4.8-1.5-3.8 0-6.3 1.9-7.4 5.6h14.8c-.3-1.7-1.2-3-2.6-4.1m-12.5 5.8c0 2.5.7 4.4 2 5.9 1.4 1.5 3.3 2.2 5.7 2.2s2.4-.2 3.4-.6c1.3-.5 2.4-1.6 3.4-3.2l1.6.8c-1.2 2.2-2.9 3.7-5.3 4.4-.9.3-1.9.4-3.1.4-2.7 0-5-.9-6.8-2.7s-2.7-4.1-2.7-6.8.9-5 2.7-6.8 4.1-2.7 6.8-2.7 5 .8 6.7 2.5c1.8 1.7 2.7 3.9 2.7 6.6z" />
    <path
      d="m74.6 37.7c-1.5-1.5-3.3-2.3-5.4-2.3s-3.9.7-5.4 2.2-2.3 3.3-2.3 5.5.8 3.9 2.3 5.4 3.3 2.3 5.4 2.3 3.9-.7 5.4-2.2 2.3-3.3 2.3-5.4-.8-3.9-2.3-5.4m1.9 14.4v-3.1c-1.9 2.3-4.4 3.5-7.3 3.5s-4.9-.9-6.7-2.7-2.7-4.1-2.7-6.7.9-4.9 2.7-6.7 4.1-2.7 6.7-2.7 5.4 1.1 7.3 3.5v-3.2h1.8v18.3h-1.8z" />
    <path d="m84.8 35.7v16.5h-1.9v-16.5h-2.4v-1.8h2.4v-5.9h1.9v5.9h4.2v1.8z" />
    <path
      d="m97.8 25.4c3 6.7 1.8 14.2-2.3 19.6 6.4-6.7 9.8-15.1 10.8-23.5-6.8-5-14.9-7.5-24.1-7.5 6.6.7 12.7 4.9 15.6 11.4" />
    <path
      d="m38.9 56c-2.2-1.4-4.1-3.5-5.2-6.1-1-2.3-1.3-4.7-1-7-2.9-.7-7.1-1.3-10-1.3 0 0 7.1 3.4 9.6 9.2 2.5 6-.2 12.9-.2 12.9 2.7-2.3 5.3-5 6.9-7.6" />
  </g>
</svg>