<?xml version="1.0" encoding="UTF-8"?>
<!-- Generator: Adobe Illustrator 26.5.0, SVG Export Plug-In . SVG Version: 6.00 Build 0)  -->
<svg xmlns="http://www.w3.org/2000/svg" xmlns:xlink="http://www.w3.org/1999/xlink" version="1.1" id="Calque_1" x="0px" y="0px" viewBox="0 0 171.8 48.1" style="enable-background:new 0 0 171.8 48.1;" xml:space="preserve">
<style type="text/css">
	.st0{fill:#010202;}
</style>
<g>
	<path class="st0" d="M16.2,12.8l0,17l5.9,0l0,6.8l-12.7,0l0-23.8L16.2,12.8z"></path>
	<path class="st0" d="M23.7,12.8l6.8,0l0,5.1L28.9,23l-4.2,0l0-3.4l-1,0L23.7,12.8z"></path>
	<path class="st0" d="M32.9,12.8l18.7,0l0,6.8l-11.9,0l0,2.5l10.2,0l0,5.9l-10.2,0l0,1.7l11.9,0l0,6.8l-18.7,0L32.9,12.8z"></path>
	<path class="st0" d="M53.7,24.7c0-3.4,2.7-5.4,9.7-5.4c7.3,0,9.3,1.7,9.3,4.8v1.5l-6.8,0v-0.3c0-0.5-0.3-0.5-2.5-0.5   c-2.4,0-2.9,0-2.9,0.7c0,0.5,0.3,0.7,2.9,0.8c7.6,0.5,9.7,1.4,9.7,5.3c0,3.4-2.7,5.4-9.7,5.4c-7.3,0-9.3-1.7-9.3-4.8l0-1.5l6.8,0   V31c0,0.5,0.3,0.5,2.5,0.5c2.4,0,2.9,0,2.9-0.7c0-0.5-0.3-0.7-2.9-0.8C56.6,29.5,53.7,28.6,53.7,24.7z"></path>
	<path class="st0" d="M87.2,36.6l-6.1,0c-4,0-5.9-1.7-5.9-5.1l0-11.5l1-3.7l5.8,0v3.4l5.3,0l0,6.1l-5.3,0v2.7c0,1.1,1,1.4,2,1.4   l3.2,0L87.2,36.6z"></path>
	<path class="st0" d="M89.7,19.6l5.9,0l0.8,2.7c0.5-1.9,1.2-2.7,3.6-2.7l1.5,0v6.8l-2.5,0c-2,0-2.5,0.5-2.5,3.1l0,7.1l-6.8,0   L89.7,19.6z"></path>
	<path class="st0" d="M110.8,18.4c3,0,4.5,0.6,5.1,1.9v-2.7c0-1.4-0.3-1.5-2.5-1.5c-2,0-2.5,0.3-2.5,1v0.3l-6.8,0v-0.7   c0-4,2.2-5.9,9.3-5.9c6.8,0,9.3,2.4,9.3,6.1l0,11.2l-6.1,0l-0.5-2.7c-0.3,1.9-2.2,3.1-6.1,3.1c-4,0-6.3-1.4-6.3-4.9   C103.6,19.9,106.2,18.4,110.8,18.4z M115.9,23c0-0.5-0.5-1-3.4-1c-1.5,0-2,0.2-2,1c0,0.8,0.5,1,2,1C115.4,24,115.9,23.5,115.9,23z"></path>
	<path class="st0" d="M131,36.9c-3.9,0-6.1-2.4-6.1-7.5v-2.7c0-5.1,2.2-7.5,6.1-7.5c3.2,0,4.8,0.8,5.8,3.1l0-9.5l6.8,0l0,23.8   l-5.9,0l-0.8-2.7C135.7,36.1,134.2,36.9,131,36.9z M136.8,28.1c0-1.2-0.7-2-2.5-2c-1.9,0-2.5,0.8-2.5,2c0,1.2,0.7,2,2.5,2   C136.1,30.1,136.8,29.3,136.8,28.1z"></path>
	<path class="st0" d="M155.1,36.9c-6.8,0-9.3-2.4-9.3-6.8v-4.1c0-4.4,2.5-6.8,9.3-6.8c7.1,0,9.3,1.7,9.3,6.6v3.7l-11.9,0v0.5   c0,1.3,0.5,1.7,2.5,1.7c2,0,2.5-0.2,2.5-0.8v-0.3l6.8,0V31C164.4,35.5,162.2,36.9,155.1,36.9z M152.5,26.4l5.1,0v-0.5   c0-1.2-0.5-1.5-2.5-1.5c-2,0-2.5,0.4-2.5,1.7V26.4z"></path>
	<rect x="103.6" y="29.8" class="st0" width="19" height="6.8"></rect>
</g>
</svg>
