<?xml version="1.0" encoding="UTF-8"?> <svg xmlns="http://www.w3.org/2000/svg" xmlns:xlink="http://www.w3.org/1999/xlink" version="1.1" id="Calque_1" x="0px" y="0px" viewBox="0 0 2139.3 1897.4" style="enable-background:new 0 0 2139.3 1897.4;" xml:space="preserve"> <style type="text/css"> .st0{fill:#842627;} .st1{fill:#F4EABD;} .st2{fill:#63111E;} .st3{fill:#FAB941;} </style> <path class="st0" d="M2020,948.7c0,523.9-417.3,948.7-942,948.7s-950.1-424.7-950.1-948.7S553.2,0,1077.9,0S2020,424.7,2020,948.7z"></path> <path class="st0" d="M0,1402c0.5-14.1,8.1-44.3,210.5-71c184.8-24.4,1703.5-22.4,1739.3-20.4c35.8,2,150.8,43.1,161.6,51.9 c10.8,8.8-49.9,132.9-65.2,150.8c-15.4,17.9,0.6,53.8,14.9,81.3c12.1,23.4-75,75.8-392.5,88.4"></path> <path class="st1" d="M1077.3,1706.7c-419,0-759.9-341.6-759.9-761.4c0-415.4,340.9-753.3,759.9-753.3 c202.9,0,393.8,80.4,537.3,226.3c138.9,141.2,218.5,332.8,218.5,525.7C1833.1,1364.5,1494,1706.7,1077.3,1706.7z M1077.3,268.6 C700.6,268.6,394,572.2,394,945.3c0,377.6,306.5,684.8,683.3,684.8c374.5,0,679.2-307.8,679.3-686.2c0-173-71.6-345-196.5-472 C1431.1,340.8,1259.6,268.6,1077.3,268.6z"></path> <path class="st1" d="M850.6,143.4c-9.8-5-23.4-17.1,0-27.9c24.5-11.4,185.8-92.7,199.2-98.9c13.3-6.3,20.4-12.3,44.1,0 s174.7,89.6,192.1,98.2s24.9,17.6,0,30.7c-26.4,13.9-176.5,97.4-191.9,104.2c-15.4,6.8-27.2,7.9-45.6,1.9 C1029.8,245.5,850.6,143.4,850.6,143.4z"></path> <path class="st2" d="M1069.9,259c-6.6,0-13.6-1.7-21.9-5.6c-21.1-9.9-194.8-106.5-197.9-108.2c-3.4-1.7-14.2-8-14-16.6 c0.1-5.6,4.9-10.7,14.1-14.9c14.9-6.9,80.3-39.6,132.8-65.9c32.8-16.4,61.1-30.6,66.4-33.1c1.3-0.6,2.5-1.2,3.7-1.8 c11.6-5.7,19.9-9.8,42.2,1.8c24.4,12.7,175,89.8,192.1,98.2c7.9,3.9,17,9.3,17.1,16.7c0.1,5.9-5.4,11.5-17.1,17.6 c-13.2,7-57.3,31-100,54.3c-42.9,23.4-83.4,45.6-91.9,49.9C1086.4,256.1,1078.5,259,1069.9,259z M1071.3,11.4 c-6.2,0-10.9,2.3-16.6,5.1c-1.2,0.6-2.4,1.2-3.8,1.8c-5.2,2.4-33.5,16.6-66.3,33c-52.5,26.3-117.9,59-132.9,65.9 c-7.6,3.5-11.7,7.5-11.8,11.4c-0.1,5,6.1,10,11.9,13l0.1,0c1.8,1,176.6,98.2,197.7,108.1c17.8,8.4,28.7,5.9,43.9-1.9 c8.4-4.3,48.9-26.5,91.8-49.9c42.7-23.3,86.7-47.4,100-54.4c9.9-5.2,15-9.9,14.9-14c-0.1-3.9-4.9-8.2-14.9-13.1 c-17.1-8.4-167.8-85.5-192.1-98.2C1083.6,13.3,1076.9,11.4,1071.3,11.4z"></path> <path class="st1" d="M17.7,1405.8c-1.2-1.8,0-4.3,2.2-4.1c67.3,4.9,563.3,34.3,784.3,7c227.7-28.1,1014.6-170.3,1316.3-74.3 c1,0.3,2.7,3,2.7,4c0,18.8-19.6,34.6-43.6,113.8c-14.6,48.3-16.7,50.9-30.9,142.3c-0.8,5.1-5.8,8.4-10.6,6.4 c-5.9-2.5-11.9-4.4-17-5.4c-288-56.7-654.7-19.7-941.9,48.7c-125,29.8-593.7,83.8-983.3,20.6c-4.7-0.8-7.5-5.6-6-10.2 c15.7-49.5,5-100.2-9.5-139.5C65.5,1474.3,54.3,1458,17.7,1405.8z"></path> <path class="st0" d="M1824.6,1301.5c117.7,0,221.5,9.2,295.9,32.9c1,0.3,2.7,3,2.7,4c0,18.8-19.6,34.6-43.6,113.8 c-14.6,48.3-16.7,50.9-30.9,142.3c-0.6,4-3.9,7-7.7,7c-1,0-1.9-0.2-2.9-0.6c-5.9-2.5-11.9-4.4-17-5.4 c-98.3-19.4-205.8-27.8-316.1-27.8c-213,0-436.6,31.4-625.8,76.5c-82.6,19.7-315.6,50-576.6,50c-133.7,0-274.7-7.9-406.7-29.3 c-4.7-0.8-7.5-5.6-6-10.2c15.7-49.5,5-100.2-9.4-139.5c-15-40.9-26.3-57.2-62.8-109.4c-1.2-1.7,0-4.1,2-4.1c0.1,0,0.1,0,0.2,0 c46.5,3.4,297.3,18.5,520.9,18.5c100.3,0,195-3,263.4-11.5C975.8,1387.5,1464.9,1301.5,1824.6,1301.5 M1824.6,1285.4 c-283.8,0-652.7,54-873,86.2c-60.5,8.9-112.7,16.5-149.3,21c-61,7.5-149,11.4-261.5,11.4c-221,0-470-14.8-519.7-18.4 c-0.4,0-1-0.1-1.4-0.1c-7,0-13.3,3.8-16.5,10c-3.2,6.2-2.8,13.7,1.3,19.4c35.7,51,46.5,66.4,60.9,105.7c17.9,48.7,21,92.1,9.2,129.1 c-2.1,6.7-1.3,14,2.4,20c3.6,5.9,9.6,9.9,16.4,11c121,19.6,258.7,29.5,409.3,29.5c254.3,0,492.5-29.5,580.4-50.4 c205.9-49,426.8-76,622-76c115,0,220.3,9.3,313,27.5c4.2,0.8,9.2,2.4,13.7,4.4c3,1.3,6.1,1.9,9.2,1.9c11.8,0,21.7-8.7,23.6-20.6 c12.8-82.5,15.5-91.4,26.9-128.7l3.5-11.5c13.1-43.1,24.8-66.9,32.6-82.6c6.8-13.8,11.8-23.8,11.8-35.9c0-7.2-5.3-16.6-13.9-19.4 C2055.3,1296.7,1954.1,1285.4,1824.6,1285.4L1824.6,1285.4z"></path> <polygon class="st3" points="338.6,492.9 350.7,517.4 377.8,521.3 358.2,540.4 362.8,567.3 338.6,554.6 314.4,567.3 319,540.4 299.5,521.3 326.5,517.4 "></polygon> <polygon class="st3" points="289.8,593.9 301.9,618.4 328.9,622.3 309.4,641.4 314,668.3 289.8,655.6 265.6,668.3 270.2,641.4 250.6,622.3 277.7,618.4 "></polygon> <polygon class="st3" points="262.1,700.5 274.2,725 301.2,729 281.6,748.1 286.3,775 262.1,762.3 237.9,775 242.5,748.1 222.9,729 250,725 "></polygon> <polygon class="st3" points="240.9,813.9 253,838.4 280.1,842.3 260.5,861.4 265.1,888.4 240.9,875.6 216.7,888.4 221.4,861.4 201.8,842.3 228.8,838.4 "></polygon> <polygon class="st3" points="240.9,925.4 253,949.9 280.1,953.9 260.5,973 265.1,999.9 240.9,987.2 216.7,999.9 221.4,973 201.8,953.9 228.8,949.9 "></polygon> <polygon class="st3" points="249.5,1039.7 261.6,1064.3 288.6,1068.2 269.1,1087.3 273.7,1114.2 249.5,1101.5 225.3,1114.2 229.9,1087.3 210.3,1068.2 237.4,1064.3 "></polygon> <polygon class="st3" points="274.2,1158.1 286.3,1182.6 313.3,1186.5 293.7,1205.6 298.4,1232.5 274.2,1219.8 250,1232.5 254.6,1205.6 235,1186.5 262.1,1182.6 "></polygon> <polygon class="st3" points="1814.8,504.8 1802.7,529.4 1775.6,533.3 1795.2,552.4 1790.6,579.3 1814.8,566.6 1839,579.3 1834.3,552.4 1853.9,533.3 1826.9,529.4 "></polygon> <polygon class="st3" points="1863.6,605.8 1851.5,630.3 1824.5,634.2 1844,653.3 1839.4,680.3 1863.6,667.5 1887.8,680.3 1883.2,653.3 1902.8,634.2 1875.7,630.3 "></polygon> <polygon class="st3" points="1891.3,712.5 1879.2,737 1852.2,740.9 1871.8,760 1867.1,787 1891.3,774.2 1915.5,787 1910.9,760 1930.5,740.9 1903.4,737 "></polygon> <polygon class="st3" points="1912.5,825.9 1900.4,850.4 1873.3,854.3 1892.9,873.4 1888.3,900.3 1912.5,887.6 1936.7,900.3 1932,873.4 1951.6,854.3 1924.6,850.4 "></polygon> <polygon class="st3" points="1912.5,937.4 1900.4,961.9 1873.3,965.8 1892.9,984.9 1888.3,1011.9 1912.5,999.1 1936.7,1011.9 1932,984.9 1951.6,965.8 1924.6,961.9 "></polygon> <polygon class="st3" points="1903.9,1051.7 1891.8,1076.2 1864.8,1080.1 1884.3,1099.2 1879.7,1126.2 1903.9,1113.4 1928.1,1126.2 1923.5,1099.2 1943,1080.1 1916,1076.2 "></polygon> <polygon class="st3" points="1879.2,1170 1867.1,1194.5 1840.1,1198.5 1859.7,1217.6 1855,1244.5 1879.2,1231.8 1903.4,1244.5 1898.8,1217.6 1918.4,1198.5 1891.3,1194.5 "></polygon> <path class="st2" d="M63,1514.1c14.4,2,80.8,9.3,107,4.8c-21.7,7.3-54.3,3.6-104.6,1.7C64.4,1517.6,63,1514.1,63,1514.1z"></path> <path class="st2" d="M2114.4,1402.5c-16.8-6.8-61.4-20.5-94.1-21.1c22.6-2.8,59.5,3.7,96.7,15.1 C2115.7,1399.5,2114.5,1402.5,2114.4,1402.5z"></path> <path class="st2" d="M2094.9,1457.1c-21.4-9.3-67.8-25.7-108-25.2c14.4-4.8,74.5,4.2,109.5,20.3 C2095.3,1455.9,2094.9,1457.1,2094.9,1457.1z"></path> <path class="st2" d="M2083.9,1493.8c-3.6-1.7-32.5-15.2-54.6-17.3c15.5-2.7,54.7,12.4,55.8,13.2 C2084.6,1491.2,2083.9,1493.8,2083.9,1493.8z"></path> <path class="st1" d="M1711,1019.9c-928.2,109.8-1101.4,226.5-1134.7,283.5C631.7,1280.5,816,1155.8,1711,1019.9z"></path> <g> <path class="st2" d="M916.2,1518.7c3.4,27.2-14.8,53.4-37.9,56.3c-6.7,0.8-13.6-0.5-19.5-4c-0.2-0.9-0.1-1.8,0-3.7 c1.7-18,4.3-38.2,5-50.4c0.1-1,0.1-1.8,0-2.3c-0.4-2.9-3.1-1.7-3.4-3.8c-0.3-2.5,0.1-5.2,1.3-7.5c5.8-3.1,14.2-6,22.4-7 C901.9,1494.1,913.9,1500.5,916.2,1518.7z M902.1,1523.1c-1.6-12.6-8.2-19.3-18.7-18c-1.5,0.2-4.8,1-7.4,1.9c0.7,1.4,1,2.8,1.2,4.3 c0.9,7.2-2.8,34.9-4,50.2c1.3,3.6,3.9,4.8,9.5,4.1C896.6,1563.9,904.6,1542.4,902.1,1523.1z"></path> </g> <g> <path class="st2" d="M957.2,1486.5c3.8-0.6,7.3-1.5,10-1.9c3.8-0.6,5.4-0.4,6.9,0.7c0,4.7-1.9,10.4-6.1,11.1 c-1.1,0.2-3.3-1.9-8.4-1.2l-3.5,0.5c-2.7,0.4-5.2,0.6-7.2,0.9l-4.2,0.6c1,0.8,1.4,1.7,1.6,2.7c0.1,0.5,0.2,1.1,0,1.6 c-0.3,5.6-0.7,12-1.4,19l5.6-0.8c6.1-0.9,12.1-2.5,16.7-4c0.1,0.8,0.1,1.4,0.1,2.3c-1,8-6.5,9.3-14.3,10.4 c-1.8,0.3-3.8,0.6-5.7,0.9c-1,0.1-1.9,0.3-2.9,0.4c-0.7,4.4-1.6,12.8-0.8,17.9c1.2,7.7,7.7,6.1,11.7,5.5c9.7-1.4,16.6-6.7,19-7 c1.8,12-7.5,14.9-21.8,17c-4.5,0.7-8.9,1.2-13.3,1.9c-7.1,1.1-8.6-2.2-9.4-7.4c-0.6-3.7-0.3-9,0.1-13.4c2.1-18.9,3.9-33.2,2.7-41.3 c-0.2-1.4-0.4-3.2-0.9-2.9c-1.2,0.5-2.4,0.7-3,0.7c-0.3-0.1-0.5-0.5-0.5-1.6c-0.1-0.9-0.1-1.8,0.2-2.8c1.2-3.7,2-4.5,4.8-5.2 C941,1489.3,949.1,1487.7,957.2,1486.5z"></path> </g> <g> <path class="st2" d="M214.3,1513.8c0.8-1.9,2.1-3,3.7-4c1.6-0.9,3.5-1,4.9-0.8c3.1,0.5,5.8,1.6,8.3,4.1c-2,1.8-3.2,3.2-4.2,5.1 c-8.1,16.8-16.6,41.7-17.7,52.7c-0.1,0.8,0,1.4,0.1,1.9c2.9,1.4,7.6,1.9,10.9,2.3c6.8,0.7,13.4,0.1,17.7-1.6 c0.2-0.1,0.3-0.2,0.4-0.2c0.1,0,0.2,0.2,0.1,0.6c-1.9,13.1-8.3,12.8-23.6,11.2c-5.5-0.6-10.1-1-15.5-1.5c-5.3-0.5-5.9-3.2-5.5-7.4 C194.8,1568.2,205.8,1532.9,214.3,1513.8z"></path> </g> <g> <path class="st2" d="M295.2,1516.6c3.9,0.3,7.5,0.2,10.2,0.4c3.9,0.3,5.4,0.8,6.5,2.2c-1,4.6-4.1,9.8-8.4,9.5 c-1.2-0.1-2.8-2.6-7.9-3l-3.6-0.3c-2.7-0.2-5.2-0.6-7.2-0.7l-4.2-0.3c0.8,1,1,2,0.9,3c0,0.5-0.1,1.1-0.3,1.5 c-1.6,5.4-3.4,11.6-5.5,18.2l5.7,0.4c6.2,0.5,12.4,0.2,17.2-0.2c-0.1,0.8-0.2,1.4-0.5,2.3c-2.7,7.6-8.4,7.6-16.2,7 c-1.8-0.1-3.9-0.3-5.8-0.4c-1-0.1-1.9-0.1-2.9-0.2c-1.7,4.1-4.4,12.1-4.8,17.3c-0.6,7.8,6.1,7.6,10.2,7.9 c9.7,0.7,17.7-2.9,20.1-2.7c-0.9,12.1-10.7,12.9-25,11.8c-4.5-0.3-9-0.8-13.4-1.1c-7.1-0.5-7.9-4.1-7.5-9.3 c0.3-3.8,1.7-8.9,3.1-13.1c6.2-18,11.2-31.5,11.8-39.6c0.1-1.4,0.3-3.2-0.3-3c-1.3,0.2-2.5,0.1-3.1,0.1c-0.3-0.1-0.3-0.6-0.2-1.7 c0.1-0.9,0.3-1.8,0.8-2.7c2-3.3,2.9-4,5.8-4C278.8,1515.7,287,1516,295.2,1516.6z"></path> </g> <g> <path class="st2" d="M393.6,1531.2c-5.4-0.1-9,1.1-11.9,2.5c-0.9,0.6-1.9,0.8-2.4,0.8c-0.1-1.3-0.1-2.6-0.1-3.7 c0.2-6.8,3.5-9.7,9.9-9.5c9.9,0.3,19.5,0.8,28.9,1c7.6,0.2,11.6-1.2,15.7-1.7c0.1,0.4,0.2,0.9,0.2,1.5c-0.4,7.3-4.3,10.4-10,10.3 c-2.4-0.1-7.3-0.6-9.8-0.6c-1.7,0-2.6,0.2-3,1.7c-2.5,9.4-7.7,28.9-11.3,43.9c-1.1,4.5-2.1,9-2.2,12.6c-0.1,2.2,0.4,3.4,1.1,5.4 c-3.2,1.9-8.1,2.5-10.5,2.4c-4-0.1-6-1.7-6-4.9c0.1-2.1,0.5-5.4,1.8-9.8c1-3.4,11.8-44,12.9-49.1c0.2-1,0.4-1.7,0.5-2.6 C396.1,1531.3,394.9,1531.2,393.6,1531.2z"></path> </g> <g> <path class="st2" d="M440.8,1569.8c-2.8,10-6.8,23.7-7.4,27.5c-0.2,1.4-0.2,2.8-0.2,4.2c-2,1.1-8.1,2.9-11.6,2.8 c-3.1,0-3.9-0.9-3.7-3.2c0-1.9,0.7-4.3,1.8-7.2c6.7-18.8,14-43.5,15-63.2c0-2-0.4-3.5-1.5-5.6c3.8-2.1,6.8-3.1,10-3 c1.5-0.1,3.2,0.2,4.3,1.3s1.5,2.8,1.5,4.4c0,2-1.5,14-4.5,27.4l20.1,0.3c1.4,0,2.5,0,3.6-0.2c0.6-1.4,1.2-3.1,1.6-4.9l7.1-29.1 c0.9-4.2,3.3-6.4,7.7-6c2.7,0.3,5.8,1.6,7,3.1c-2.8,2.9-13.5,55-14.8,60.6c-0.8,3.9-1.6,7.4-1.6,9.9c0,2.5,0.7,5,2.1,7.1 c0,2.2-9.1,3.6-11.8,3.6c-4.3-0.1-5.5-2.3-5.4-6.3c0-2.5,0.8-6.1,1.6-9.2c1.3-5.1,2.9-11.9,4.8-20.2c-2.8,1-7.3,1.1-11.9,1.1 c-3.2,0-6.5-0.2-9.4-0.2c-1.2,0-2.2,0.1-3.2,0.2C441.6,1566.4,441.2,1568.1,440.8,1569.8z"></path> </g> <g> <path class="st2" d="M532.5,1522.4c3.9,0,7.4-0.4,10.2-0.4c3.9,0,5.4,0.4,6.7,1.7c-0.7,4.6-3.4,10.1-7.6,10.1c-1.2,0-3-2.4-8.1-2.4 H530c-2.7,0-5.2-0.2-7.3-0.2h-4.3c0.9,1,1.2,1.9,1.2,2.9c0,0.5,0,1.1-0.2,1.5c-1.2,5.5-2.5,11.8-4.2,18.6h5.7 c6.2,0,12.4-0.7,17.1-1.5c0,0.8-0.1,1.5-0.3,2.3c-2.1,7.7-7.8,8.2-15.7,8.2c-1.8,0-3.9,0-5.8,0c-1,0-1.9,0-2.9,0 c-1.4,4.3-3.5,12.4-3.5,17.6c0,7.8,6.7,7.2,10.7,7.2c9.8,0,17.4-4.2,19.8-4.2c0,12.1-9.7,13.6-24.1,13.6c-4.5,0-9-0.1-13.4-0.1 c-7.2,0-8.2-3.5-8.2-8.7c0-3.8,1.1-9,2.1-13.2c4.8-18.4,8.8-32.3,8.8-40.4c0-1.5,0.1-3.2-0.5-3c-1.3,0.3-2.5,0.3-3.1,0.3 c-0.3-0.1-0.4-0.6-0.3-1.6c0-0.9,0.2-1.8,0.6-2.7c1.7-3.5,2.6-4.2,5.5-4.4C516,1522.7,524.3,1522.4,532.5,1522.4z"></path> </g> <g> <path class="st2" d="M548.8,1597.5c-3.2,0.1-5-1.1-5-3.3c0-1.4,0.4-3,1.5-5.1c6.8-13,15.9-28.9,24.8-44.5c3.6-6.5,8-13.7,12.2-21.7 c3.4-2.7,7.7-3.9,12-3.5c2.7,0.2,4.2,2.5,4.5,6.8c0,2.2,0.1,4.9,0.2,8c0.1,3.3,0.4,6.1,0.4,8.5c0.4,3.4,1.6,21.4,1.8,24.6 c0.5,6.1,1.3,11.7,2.3,16.1c1.1,4.5,2.5,7.7,4.7,9.7c-3.4,2.5-7.6,3.7-11.9,3.4c-3.4-0.2-5.7-2.9-6.7-9.4c-1-5.3-1.3-10.5-1.8-15.8 c-1.4,1.2-3,1.4-4.4,1.4c-5.3,0.3-10.5,0.5-15.7,0.6c-2.6,1.4-3.5,2.7-4.5,4.5c-1.3,2-2.8,5.4-3.9,7.8c-1.2,3.1-2.5,6.6-1.7,9.9 C554.9,1596.8,551.9,1597.4,548.8,1597.5z M587.4,1564.5c-0.2-8-1.2-23.6-1.9-31.1c-4.3,8.3-10.2,19.5-16.3,31.7l15.9-0.3 C586,1564.9,586.7,1564.6,587.4,1564.5z"></path> </g> <g> <path class="st2" d="M635.8,1528.5c-5.4,0.2-8.9,1.7-11.7,3.3c-0.8,0.6-1.8,1-2.4,1c-0.2-1.3-0.3-2.6-0.4-3.7 c-0.3-6.8,2.9-9.9,9.2-10.2c9.9-0.4,19.5-0.6,28.9-1c7.6-0.3,11.5-2,15.6-2.8c0.1,0.4,0.2,0.9,0.3,1.4c0.1,7.3-3.6,10.7-9.3,11 c-2.4,0.1-7.4-0.1-9.8,0c-1.7,0.1-2.6,0.4-2.9,1.9c-1.8,9.6-5.7,29.4-8.2,44.6c-0.8,4.6-1.4,9.2-1.3,12.7c0.1,2.2,0.6,3.4,1.5,5.4 c-3.1,2.2-7.9,3.1-10.3,3.2c-4,0.2-6.2-1.3-6.3-4.5c-0.1-2.1,0.1-5.4,1.1-9.9c0.7-3.4,8.7-44.7,9.4-49.9c0.2-1,0.3-1.8,0.4-2.6 C638.3,1528.5,637.2,1528.5,635.8,1528.5z"></path> </g> <g> <path class="st2" d="M702.7,1555.4c10.8,23.1,18,27,23.4,29.4c-1.4,4.3-6.5,6.4-11.1,6.7c-5.2,0.3-8.2-2.2-11.6-7.7 c-3.9-6.2-9.7-17.8-13.4-26.7c-1,0-2.1-0.2-3.2-0.6c-1.9,12.4-4.2,23.7-3.9,28.6c0.2,2.8,0.7,4.2,0.8,5.6c0.1,1.6-9.8,3-10.2,3 c-3.2,0.2-4.8-0.9-5-4c0-1.1,0-2.2,0.2-3.6c2.6-16.1,6.2-33.6,8.1-46.6c0.6-4.2,1-7.6,0.9-10c-0.2-2.9-1.6-3.8-3.5-4.8 c1.7-6.1,12.3-9.4,24.5-10.1c14.6-0.9,24.3,3.6,25,14.9C724.3,1541.5,715.8,1550.7,702.7,1555.4z M687.8,1549.3 c0.1,1.9,2.3,1.9,3.8,1.8c11.5-0.7,18.6-7.8,18-18.7c-0.4-7-5-10.3-12.6-9.8c-6.7,0.4-7.4,1.6-7.2,4.2c1,0.1,1.2,0.8,1.3,1.5 c0,0.4,0,0.7,0,1c-0.7,5.8-2.2,12.1-3,18.4C688,1548.2,687.8,1548.8,687.8,1549.3z"></path> </g> <g> <path class="st2" d="M769.3,1510.9c3.9-0.3,7.4-1,10.1-1.2c3.9-0.3,5.4-0.1,6.8,1.2c-0.3,4.7-2.5,10.3-6.8,10.7 c-1.2,0.1-3.2-2.2-8.3-1.7l-3.6,0.3c-2.7,0.2-5.2,0.2-7.2,0.4l-4.2,0.4c0.9,0.9,1.3,1.8,1.4,2.8c0,0.5,0.1,1.1-0.1,1.6 c-0.7,5.6-1.5,12-2.6,18.8l5.7-0.5c6.2-0.5,12.3-1.7,16.9-2.9c0.1,0.8,0,1.5-0.1,2.3c-1.5,7.9-7.1,8.9-14.9,9.5 c-1.8,0.2-3.9,0.3-5.8,0.5c-1,0.1-1.9,0.2-2.9,0.2c-1,4.4-2.4,12.6-2,17.8c0.7,7.8,7.3,6.6,11.3,6.2c9.7-0.8,17-5.6,19.4-5.8 c1,12-8.5,14.4-22.8,15.6c-4.5,0.4-9,0.7-13.4,1c-7.1,0.6-8.5-2.8-8.9-8c-0.3-3.8,0.3-9,1-13.4c3.3-18.7,6-32.9,5.3-41 c-0.1-1.4-0.2-3.2-0.7-2.9c-1.2,0.4-2.5,0.5-3.1,0.6c-0.3-0.1-0.4-0.5-0.4-1.6c-0.1-0.9,0-1.8,0.3-2.7c1.4-3.6,2.2-4.4,5.1-4.9 C753,1512.7,761.1,1511.6,769.3,1510.9z"></path> </g> <g> <path class="st2" d="M993.2,1541c2.7,5.5,8.8,7.7,15.5,6.4c8.1-1.6,12.5-6.7,10.9-14.4c-0.8-4.3-3.7-7.2-8.1-9.5 c-8.6-4.7-19.3-7.1-21.4-18c-3-15,8.4-27.5,23.3-30.5c7.8-1.5,14.9-1.2,16.1,4.5c0.6,3.2-2,7.5-4.6,9.4c-4-4.2-7.9-6.5-14.2-5.3 c-6.7,1.3-10.5,5.4-9.3,11.9c1.1,5.8,4.8,7.3,19.6,14.6c5.7,3.4,9.7,7.4,11,14.2c3.1,15.5-11.1,28.9-25.8,31.8 c-8.1,1.6-19.5,0.4-20.9-6.4c-0.8-3.8,2-9.4,7.2-12.1C992.4,1538.9,992.7,1539.9,993.2,1541z"></path> </g> <g> <path class="st2" d="M1112.2,1478.3c0.1-4.5,0-8.5-0.5-11.8c-0.3-2-0.4-4.4-3.2-5c-0.5,0-0.8-0.3-1.1-0.8c-0.5-0.9-0.5-0.9,0-1.4 c3.5-3,8.1-5.3,11.4-5.9c1.8-0.3,4-0.3,5.4,1c1.5,1.2,1.9,3.5,2,5.2c-0.7,16.5-1.8,32.9-1.9,49.4c0,3.9-0.1,7.5,0.4,10.1 c0.5,2.5,1.7,4.7,3.5,6.5c0.4,2.1-8.2,5.4-10.8,5.9c-4.2,0.8-5.8-1.3-6.6-5.1c-0.5-2.5-0.5-6.1-0.3-9.4 C1111.2,1505.5,1111.9,1489.9,1112.2,1478.3z"></path> </g> <g> <path class="st2" d="M1202.4,1441.3c2.2-2.4,4.2-3.3,10.3-4.9c1.7-0.5,4.4-0.7,4.4,1.9c0,2.3-0.2,7.3-0.5,12.4 c-1.1,21.3-0.2,41.7,0.9,48.1c0.6,3.6,2.3,7.1,4.7,9.9c-1.1,1-6.2,5.1-10.1,5.8c-3.5,0.6-6-0.4-6.9-4.9c-1-5.9-0.7-32.4-1.5-45.5 c-0.7,1.3-1.3,2.7-2,4.3c-6.6,15.5-13.1,31.4-15.2,39.8c-1.8,2.3-4,4.3-7.5,4.9c-1.8,0.3-3-0.8-4-3c-1.5-3.7-9.1-22.8-14.3-35.8 c-0.3-0.8-0.6-1.5-0.9-1.9c-0.2,1.5-0.3,3.1-0.4,4.6c-1.7,17.7-2.8,33.9-1.9,38.9c0.4,2.5,1.2,4.2,2.3,5.7 c-3.1,1.7-5.9,2.8-8.4,3.2c-4,0.7-6.1-0.4-6.7-3.2c-0.2-1-0.3-2.6-0.1-4.9c0.4-4.6,3.9-36,4.4-42.5c0.5-6.1,1-12.1,1.7-18.2 c-0.2-2.1-0.8-3.4-2.1-5.3c3.5-2.9,6.5-4.2,9.6-4.9c2.5-0.6,5.4,0.6,6.1,3.2c2,7,9.1,25.5,16,42.8c0.5,1.2,1.1,2.5,1.7,3.5 c0.5-0.8,1-1.8,1.5-3.2c3.7-9.3,8.7-20.8,13.1-31.4c3.2-7.3,5.3-13.2,6.1-16.9C1202.8,1442.9,1202.9,1442,1202.4,1441.3z"></path> </g> <g> <path class="st2" d="M1253.2,1500.3c0.4,2.5,0.9,3.6,1.7,5.1c-2.2,1.9-6.2,3.4-10.1,4c-4,0.6-6-0.7-6.3-3.4 c-0.3-2.4-0.2-5.2,0.1-8.2c1.9-18.4,3.6-34.9,4-47.5c0-1.8,0.1-4-0.1-5.6c-0.5-3.6-3.2,0.1-3.7-3.4c-0.2-2.5-0.1-4.1,0.8-5.1 c5.2-3.8,13.4-6.5,20.3-7.5c15.7-2.2,26.7,0.6,28.7,14.1c2.2,15.2-9.8,29.7-27.5,32.3c-2.8,0.4-4.2-2.8-4.7-6.4 c-0.1-0.4,0.1-0.4,0.8-0.5c12.1-1.7,19-9.4,17.2-21.5c-1.2-8.6-7.1-10.8-15.5-9.6c-1.1,0.3-2.7,0.6-4.3,1.2 c0.8,1.3,1.2,2.6,1.5,4.2c0.2,1.5,0.2,3.3,0,5.7c-0.9,12.6-2.4,24.4-3,37C1252.7,1491.5,1252.7,1496.9,1253.2,1500.3z"></path> </g> <g> <path class="st2" d="M1332.3,1460.4c11.9,22.5,19.3,26.1,24.8,28.2c-1.2,4.4-6.2,6.7-10.8,7.2c-5.2,0.6-8.3-1.8-12-7.1 c-4.2-6-10.6-17.3-14.8-26c-1,0-2.1-0.1-3.3-0.4c-1.2,12.5-3,23.9-2.4,28.8c0.3,2.8,1,4.2,1.1,5.5c0.2,1.6-9.6,3.5-10,3.5 c-3.2,0.4-4.8-0.6-5.2-3.7c0-1.1-0.2-2.2,0-3.6c1.8-16.2,4.5-33.9,5.7-46.9c0.4-4.2,0.6-7.7,0.3-10.1c-0.3-2.9-1.8-3.7-3.7-4.6 c1.4-6.2,11.8-10,23.9-11.3c14.5-1.6,24.5,2.3,25.7,13.6C1353.1,1445.5,1345.1,1455.1,1332.3,1460.4z M1317.1,1455.1 c0.2,1.9,2.4,1.8,3.9,1.6c11.4-1.3,18.2-8.7,17-19.6c-0.8-7-5.5-10-13.1-9.1c-6.6,0.7-7.3,2-7,4.6c1,0.1,1.2,0.7,1.3,1.4 c0,0.4,0.1,0.7,0,1c-0.4,5.8-1.6,12.2-2,18.5C1317.2,1454.1,1317,1454.7,1317.1,1455.1z"></path> </g> <g> <path class="st2" d="M1429.8,1434.7c1.8,24.5-14.1,54.7-37.9,56.5c-14.2,1-21.9-7.3-23-23.1c-1.8-25.2,13.4-54.7,37.5-56.5 C1420.5,1410.6,1428.6,1419,1429.8,1434.7z M1415.3,1435.1c-0.7-9.3-4.3-15.7-11.9-15.1c-12,0.9-21,28.1-19.7,45.6 c0.8,10.8,4.3,19,12,17.2C1410.5,1479.4,1416.3,1449.7,1415.3,1435.1z"></path> </g> <g> <path class="st2" d="M1451.6,1441.5c-1.2-6.3-2.8-11.9-4.2-16.5c-1.7-4.5-3.5-7.7-6.3-9.4c3.3-3.2,7.4-5.2,11.9-5.6 c3.7-0.3,6.3,2.3,8.3,8.9c0.8,2.9,1.5,5.8,2.1,8.7c2,9.4,4.3,23,6.3,36.9c11.4-21.3,18.3-35,21.5-45.3c1-3.1,2-6.6,1-9.9 c2.7-1.3,5.7-2,8.7-2.2c3.2-0.2,5.1,0.9,5.3,3c0.1,1.3-0.5,2.9-1.1,5.1c-1.1,3.8-4,9.5-7.1,15.2c-13.3,24.6-22.7,42.5-26.2,53.1 c-0.7,1.3-5.9,3.5-8.9,3.7c-2,0.1-2.7-0.8-3.2-3.4C1457.2,1469.8,1454.4,1455.6,1451.6,1441.5z"></path> </g> <g> <path class="st2" d="M1519.2,1428.4c0.7-4.5,1-8.4,1-11.8c0-2,0.1-4.5-2.6-5.4c-0.5-0.1-0.8-0.4-1-0.9c-0.3-0.9-0.3-0.9,0.2-1.4 c3.8-2.6,8.7-4.2,12-4.4c1.8-0.1,4,0.2,5.2,1.6c1.3,1.4,1.5,3.7,1.3,5.4c-2.8,16.2-5.9,32.4-8.1,48.7c-0.5,3.9-1,7.4-0.8,10 c0.2,2.5,1.1,4.9,2.7,6.9c0.1,2.1-8.8,4.3-11.4,4.5c-4.2,0.3-5.6-2-5.9-5.8c-0.2-2.5,0.3-6.1,0.9-9.4 C1514.9,1455.2,1517.5,1439.8,1519.2,1428.4z"></path> </g> <g> <path class="st2" d="M1552.9,1463.3c1.9,5.8,7.6,8.9,14.4,8.5c8.2-0.4,13.3-4.9,12.9-12.7c-0.2-4.3-2.6-7.6-6.7-10.6 c-7.9-5.9-18-9.8-18.6-20.9c-0.8-15.3,12.3-26,27.4-26.8c7.9-0.4,15,0.9,15.3,6.7c0.2,3.3-3,7.1-5.9,8.6c-3.4-4.8-6.9-7.6-13.4-7.2 c-6.9,0.4-11.2,3.9-10.9,10.5c0.3,5.9,3.7,7.9,17.3,17.3c5.2,4.2,8.5,8.7,8.9,15.6c0.8,15.7-15.1,27-30.1,27.8 c-8.2,0.4-19.4-2.4-19.8-9.3c-0.2-3.9,3.3-9,8.8-10.9C1552.4,1461.1,1552.5,1462.2,1552.9,1463.3z"></path> </g> <g> <path class="st2" d="M1604.8,1478.3c-3.2,0.1-4.9-1.1-5-3.3c0-1.4,0.4-3,1.5-5.1c6.8-13,16-28.9,24.9-44.4 c3.7-6.4,8-13.7,12.2-21.7c3.4-2.7,7.7-3.9,12-3.5c2.7,0.2,4.2,2.5,4.5,6.8c0,2.2,0.1,4.9,0.2,8c0.1,3.3,0.4,6.1,0.4,8.5 c0.3,3.4,1.5,21.4,1.8,24.6c0.5,6.1,1.3,11.7,2.3,16.1c1,4.5,2.4,7.7,4.7,9.7c-3.4,2.5-7.6,3.7-11.9,3.4c-3.4-0.2-5.7-2.9-6.6-9.4 c-1-5.3-1.2-10.5-1.8-15.8c-1.4,1.2-3,1.4-4.4,1.4c-5.3,0.3-10.5,0.5-15.7,0.5c-2.6,1.4-3.5,2.7-4.5,4.5c-1.3,2-2.8,5.4-3.9,7.8 c-1.2,3.1-2.5,6.6-1.7,9.9C1610.8,1477.6,1607.8,1478.2,1604.8,1478.3z M1643.5,1445.5c-0.2-8-1.2-23.6-1.9-31.1 c-4.3,8.3-10.2,19.5-16.4,31.7l15.9-0.3C1642,1445.8,1642.7,1445.6,1643.5,1445.5z"></path> </g> <g> <path class="st2" d="M1694.3,1409.7c-5.4,0-9,1.4-11.8,2.8c-0.9,0.6-1.8,0.9-2.4,0.9c-0.1-1.3-0.2-2.6-0.2-3.7 c0-6.8,3.3-9.8,9.6-9.8c9.9,0,19.5,0.2,28.9,0.2c7.6,0,11.6-1.5,15.7-2.2c0.1,0.4,0.2,0.9,0.2,1.5c-0.2,7.3-4,10.5-9.7,10.6 c-2.4,0-7.3-0.4-9.8-0.4c-1.7,0-2.6,0.3-3,1.7c-2.2,9.5-6.9,29.1-10,44.2c-1,4.5-1.8,9.1-1.8,12.7c0,2.2,0.5,3.4,1.3,5.4 c-3.2,2-8,2.7-10.4,2.7c-4,0-6.1-1.5-6.1-4.7c0-2.1,0.4-5.4,1.5-9.9c0.9-3.4,10.5-44.3,11.5-49.4c0.2-1,0.4-1.7,0.5-2.6 C1696.9,1409.8,1695.7,1409.7,1694.3,1409.7z"></path> </g> <g> <path class="st2" d="M1762.7,1400.8c3.9,0,7.4-0.3,10.2-0.3c3.9,0,5.4,0.5,6.6,1.8c-0.7,4.6-3.5,10-7.8,10c-1.2,0-3-2.5-8.1-2.5 l-3.6,0c-2.7,0-5.2-0.3-7.2-0.3l-4.3-0.1c0.9,1,1.1,1.9,1.1,2.9c0,0.5,0,1.1-0.2,1.5c-1.2,5.5-2.7,11.8-4.4,18.5l5.7,0.1 c6.2,0.1,12.4-0.5,17.1-1.2c0,0.8-0.1,1.4-0.3,2.3c-2.2,7.7-7.9,8.1-15.8,8c-1.8,0-3.9,0-5.8-0.1c-1,0-1.9,0-2.9,0 c-1.4,4.2-3.6,12.3-3.7,17.5c-0.1,7.8,6.6,7.2,10.6,7.3c9.8,0.1,17.5-3.9,19.9-3.9c-0.1,12.1-9.8,13.5-24.2,13.3 c-4.5-0.1-9-0.2-13.4-0.3c-7.2-0.1-8.2-3.6-8.1-8.8c0-3.8,1.2-9,2.3-13.2c5.1-18.3,9.2-32.2,9.3-40.3c0-1.5,0.1-3.2-0.4-3 c-1.3,0.3-2.5,0.3-3.1,0.3c-0.3-0.1-0.4-0.6-0.3-1.6c0-0.9,0.2-1.8,0.6-2.7c1.8-3.5,2.7-4.1,5.6-4.4 C1746.3,1400.9,1754.5,1400.7,1762.7,1400.8z"></path> </g> <g> <path class="st2" d="M1823.8,1468.6c0-1.2,0-2.3,0.1-3.4c0-0.2,0-0.3-0.1-0.2c-6.9,7.6-13.8,13.3-23.7,13.1 c-11.8-0.3-15.4-9-15.2-17.9c0-1.5,0.2-3.1,0.4-4.5c1.7-10.7,9.7-37.7,10.3-45.4c0.1-3.8-1.3-4.8-2.2-6.4c3-2.5,9.3-3.1,12.2-3 c3.4,0.1,5.1,1.5,5.2,4.5c-0.2,7.7-6.6,28-9.7,41.1c-1.2,4.9-2.1,9.3-2.2,12.8c-0.1,5.6,2.1,8.9,6.8,9c4.1,0.1,9-2.5,13.9-8 c2.8-3.6,4.7-9.2,6.5-15.2c3.4-11.5,8-28.7,9.3-37.1c0.1-0.9-0.1-1.2-0.2-1.9c-0.5-4,4.3-4.4,8.3-4.3c6.4,0.1,7.7,0.9,7.7,3.7 c-0.1,2-1.3,4.2-2.2,7.2c-5.4,16.7-11.2,37-11.5,48.8c0,1.6,0,3.1,0.2,4.4c0.7,4.7,1.4,7.8,3.7,9.8c-3.5,2.3-7.8,3.4-12.1,2.9 C1824.1,1477.8,1823.7,1473.1,1823.8,1468.6z"></path> </g> <g> <path class="st2" d="M1894.1,1443.7c8.2,24.1,14.9,28.8,20,31.8c-1.9,4.2-7.2,5.6-11.8,5.4c-5.2-0.3-7.9-3.1-10.7-8.9 c-3.2-6.5-7.7-18.8-10.4-28c-1-0.1-2.1-0.4-3.1-0.9c-3.2,12.1-6.8,23.1-7,28c-0.1,2.8,0.3,4.3,0.2,5.6c-0.1,1.6-10.1,1.9-10.5,1.9 c-3.2-0.2-4.7-1.4-4.5-4.5c0.1-1.1,0.2-2.2,0.6-3.6c4.4-15.8,9.8-32.7,13.1-45.4c1.1-4.1,1.8-7.5,1.9-9.9c0.1-2.9-1.2-3.9-2.9-5.2 c2.3-5.9,13.3-8,25.4-7.4c14.6,0.7,23.8,6.2,23.2,17.5C1917,1432.2,1907.6,1440.5,1894.1,1443.7z M1880,1436 c-0.1,1.9,2.1,2.1,3.6,2.2c11.5,0.6,19.4-5.7,19.9-16.6c0.3-7-3.8-10.7-11.5-11.1c-6.7-0.3-7.5,0.8-7.6,3.4c1,0.2,1.1,0.9,1.1,1.6 c0,0.4,0,0.7-0.1,1c-1.3,5.6-3.5,11.8-5,18C1880.2,1435,1880,1435.6,1880,1436z"></path> </g> <g> <path class="st2" d="M1932.6,1466c1.1,6,6.5,9.8,13.2,10.2c8.2,0.6,13.8-3.2,14.4-11c0.3-4.3-1.7-7.9-5.3-11.3 c-7.1-6.8-16.7-11.9-15.9-23c1.1-15.2,15.4-24.3,30.5-23.2c7.9,0.6,14.7,2.8,14.3,8.6c-0.2,3.3-3.9,6.7-7,7.8 c-2.7-5.1-5.9-8.4-12.4-8.8c-6.8-0.5-11.6,2.5-12.1,9c-0.4,5.9,2.7,8.3,15,19.3c4.6,4.8,7.4,9.7,6.9,16.6 c-1.1,15.7-18.3,25-33.3,23.9c-8.2-0.6-19-4.7-18.5-11.7c0.3-3.9,4.4-8.5,10.1-9.7C1932.4,1463.8,1932.4,1464.8,1932.6,1466z"></path> </g> <path class="st1" d="M459.7,974.7c-10.4-4.5-8.3-28.4-8.2-38.5c0.1-9.1,37.6-192.5,41.3-225.6c3.5-31.3,5.7-27.5-10.7-45 c6.5-6.6,12.8-26.9,59.1-29.5c20.8,17.5,4.8,53.5,1.7,64.4c-9.4,32.6-24.4,142.9-37.1,191.5c-9.9,37.7,1.9,78.8,27.1,107.1 c1.7,1.9,0.5,5.1-2.1,5c-16.2-0.7-37.1-14.7-44.3-18.6C477.2,980.7,464.2,976.7,459.7,974.7z"></path> <path class="st1" d="M753.9,885.8c-6.1,2.4-17.4,18.9-27.3,25.2c-1.7,1.1-3-17.3,6.8-50.2c33-111.1-53.7-36.3-68.2-2 c19.5-94.5-53.3-21.2-72.8,11.4c24.5-68.2-13.7-47.3-31.5-36.4c8.2,36.1-10.8,91.6-24.9,127.2c43.6,1.9,34.7-11.4,49-43.8 c12.7-28.8,33.6-66,48.3-69.8c0.7,18.1-12,59.7-18.7,97.3c10.5,8.4,20.6,3.6,33.5-1.3c2-23.5,39.7-104.1,54.4-106.8 c6,1.5-1.2,29.4-8.6,59.1c-9.2,37,3.3,52.3,30.2,38.5C742.2,924.8,755.5,898.8,753.9,885.8L753.9,885.8z"></path> <path class="st1" d="M888.3,782.7c-12.6-3.8-35-6-69.5,52.4c2.8-12.1,12.3-29.2,6.3-45.8c-15.9-5.8-37.5,10.1-37.5,10.1 c10.6,23.4-10.8,76.8-18.4,116.8c-4.5,23.9-28.7,82.3,27.2,49.6c-2.3-18.4-3.3-22.7,3.3-46.3c12.3,2.3,51.1,15.2,87.6-53.1 C914.4,815.4,894.8,784.6,888.3,782.7z M862.8,842.9c-0.7,3.2-4.6,20.3-15.7,43.2c-2.6,5.4-24.2,28-40,9c0,0.1,0,0.2,0.1,0.2 l-1.3-1.6c0.4,0.5,0.8,0.9,1.2,1.4c-3.3-8.1,4.3-17.3,29-64.1C850.6,803.6,873.7,795.8,862.8,842.9z"></path> <path class="st1" d="M947.2,760c-7-5.5-34,30-8.1,38.3c0.8,15.4-10.8,36.3-17.1,46.6c10.1,1.8,29.7-3.3,44.3-50.9 c12.8-1.8,7.2-0.8,21.7-5c0.3,16.4-19.7,60.4-24.2,86.1c-1.7,9.7,5.3,40,42.2,12c13.7-10.5,21-21.3,26.5-44.5 c-10.1,3-20.4,23.9-32.2,26.4c-3-25.4,16.4-61.9,19.9-72.8s9.3-42.8-17.6-33.5C984.9,768.9,935.3,787,947.2,760z"></path> <path class="st1" d="M1153.8,745.4c-42.8-10.2-65.2,17.9-79.9,36.3c-16.7,20.9-35.6,74.1-9.7,93.7c32.5,24.4,79.8-13,93.4-34.7 C1176.8,810.1,1187.6,753.5,1153.8,745.4z M1135,820.2c-6.2,18.5-15.6,45.8-35.5,42.6c-20.2-3.2-8.1-50.7-4.3-64.5 c3.8-13.8,15.9-38.9,33-36.8C1143,763.3,1142.9,796.3,1135,820.2z"></path> <path class="st1" d="M837.2,1044.5c-1.8-18.6-6.8-78.6-25.7-85.9c9.1-10.8,31.5-20.2,37.8-17.4c22.2,9.8,21.7,111,25.9,131.9 c13.6-19.1,7.7-10.5,43.3-76.5c3.6-6.6,24.7-38.8,22.7-64.2c5.8-2.5,26.2-11.1,34-4.8c5,15.4-33.5,72.7-41.5,87.9 c-4.3,8.1-47.1,85.1-53.1,105.2c-2.5,8.3-19.1,13.3-31,14.9C842.2,1119.3,837.7,1050.2,837.2,1044.5z"></path> <path class="st1" d="M972.1,1041c3-11.6,11.2-41.5,3.5-52.1c12.4-6,49-24.6,38.1,14.1c-12,42.4-16.7,47.8-13.3,79.8 c8.8,0,21.9-25.7,29.7-24.2c-0.8,11.1-15.6,47.1-44.1,52.6c-21.1,4.1-22.9-19.1-21.9-33.7C965.1,1062.9,967.2,1060.3,972.1,1041z"></path> <path class="st1" d="M1027.7,941.7c6-18.2,6.1-14.8,9.3-25.1c-13.1-6.3-28.7,1.5-44.6,8.8c2.3,13.8-6.8,22.2-1.7,38.5 C992.1,968.3,1019.4,967,1027.7,941.7z"></path> <path class="st1" d="M1161.4,1057.1c-6.8-25.2,14.2-85.8,21.4-117c6.8-29.5,3.3-33.7-1.5-36.8c-7-4.6-21.7,2-33.5,9.8 c4.8,13.8-0.2,38-2.5,47.7c-54.4-15.4-85.2,44.5-94.7,73.9c-13.6,42-3.8,72.5,19.1,64.7c36.2-12.3,40.8-27.9,55.6-52.4 c-7.6,27.7,6.3,49.1,27.4,39c26.4-12.6,36.5-37,36.3-52.6C1183.6,1032.9,1171.5,1055.1,1161.4,1057.1z M1121.4,1027.2 c-11.3,22.6-24.9,41-33.7,43.6c-8.8,2.5-11.8-15.4,0-50.9c5.1-15.2,23.1-55.1,46.8-38.3C1146.6,990.1,1133,1003.9,1121.4,1027.2z"></path> <path class="st1" d="M1345,999.5c4.3-15.6,14.6-51.2,5.8-66.4c4.7-4.6,22.1-14.9,33.8-11.7c2.4,0.7,4.1,2.9,4.3,5.4 c1.1,15.4-0.9,26.7-5.9,44.7c38.5-72.3,86.9-80.6,78-29.7c-7.7,44-11.1,39.3-14.6,71.4c-0.3,3,3.5,5.3,5.6,3.1 c8.7-9.3,14.4-21.6,23.9-23.3c3.8,12.6-17.9,44.1-32.2,49.6c-10.6,4.1-35.2,16.3-30.5-28.5c3.4-31.9,14-47.6,11.1-67.5 c-0.2-1.6-2.1-2.3-3.5-1.5c-13.9,8.7-34.4,39.9-52.2,91.6c-7.7,22.4-21.2,23-38.6,23.1c-2.1,0-3.7-2-3.1-4 C1331.8,1039.5,1343.1,1006.3,1345,999.5z"></path> <path class="st1" d="M1545.4,900c41.7-22.6,86.1-2.6,34.5,26.4c0.3-17.9-27.9-32.5-46.7,14.4c-11.2,27.9-14.2,84.7,26.1,65.7 c17.8-8.4,24.2-18.6,31.8-24.9c1.9,5.3,4.8,12.7-3.9,23.9c-6.9,8.9-42.5,30.5-72.5,27.9c-31.2-2.6-31.7-50.6-15.9-82 C1514.7,920.2,1538.9,903.5,1545.4,900z"></path> <path class="st1" d="M1603.7,901.2"></path> <path class="st1" d="M1661.8,957.4c42.1-21.7,60.2-35.4,66-58.9c5.7-23.5-30.9-40.8-70-8.2c-35.4,29.5-39.9,59.1-44.1,77.7 c-2,8.9-1.1,32.1,12.4,40.5c18.5,11.6,48.7,3,70.5-8.1c21.8-11.1,26.4-21.5,23-35.9c-32.9,26.9-42.6,30.4-58.2,26.4 C1645.7,986.8,1643.6,966.8,1661.8,957.4z M1678.9,893.8c4-2,18.6-4.9,14.9,11.1c-4.1,17.5-16.4,22.8-24.7,30.4 c-6.9,6.3-13.1,11.2-14.1,12.1C1652.4,940.8,1667.3,899.6,1678.9,893.8z"></path> <path class="st1" d="M1249.2,1017.2c42.1-21.7,60.2-35.4,66-58.9c5.7-23.5-30.9-40.8-70-8.2c-35.4,29.5-39.9,59.1-44.1,77.7 c-2,8.9-1.1,32.1,12.4,40.5c18.5,11.6,48.7,3,70.5-8.1c21.8-11.1,26.4-21.5,23-35.9c-32.9,26.9-42.6,30.4-58.2,26.4 C1233.1,1046.6,1231,1026.6,1249.2,1017.2z M1266.3,953.6c4-2,18.6-4.9,14.9,11.1c-4.1,17.5-16.4,22.8-24.7,30.4 c-6.9,6.3-13.1,11.2-14.1,12.1C1239.8,1000.6,1254.7,959.4,1266.3,953.6z"></path> <g> <path class="st2" d="M1003.5,73.3v110.8h13.4v9h-22.5V73.3H1003.5z"></path> <path class="st2" d="M1034.5,73.3l10.7,21.2l10.4-21.2h10.3l-16.4,32.6v87.2h-9v-87.4l-16-32.5H1034.5z"></path> <path class="st2" d="M1106.5,133.3c0,8.1-0.5,15.8-1.4,23.1c-1,7.3-2.3,13.6-3.9,19c-1.6,5.4-3.6,9.7-5.8,12.9 c-2.2,3.2-4.6,4.7-7.1,4.7c-2.5,0-4.8-1.6-7-4.7s-4.1-7.4-5.8-12.9c-1.6-5.4-2.9-11.8-3.8-19c-0.9-7.3-1.4-15-1.4-23.1 c0-8.2,0.5-16,1.4-23.3c0.9-7.3,2.2-13.7,3.8-19.1c1.6-5.4,3.6-9.7,5.8-12.9c2.2-3.2,4.5-4.7,7-4.7c2.5,0,4.8,1.6,7.1,4.7 c2.2,3.1,4.2,7.4,5.8,12.9c1.6,5.4,2.9,11.8,3.9,19.1C1106,117.3,1106.5,125,1106.5,133.3z M1097.5,133.3c0-6.5-0.3-12.7-0.9-18.6 c-0.6-5.9-1.3-11.2-2.2-15.7c-0.9-4.5-1.8-8.1-2.9-10.8c-1.1-2.6-2.1-4-3.2-4c-1,0-2,1.3-3.1,4c-1.1,2.6-2,6.2-2.9,10.8 c-0.9,4.5-1.6,9.7-2.2,15.7c-0.5,5.9-0.8,12.1-0.8,18.6c0,6.5,0.3,12.6,0.8,18.5c0.5,5.8,1.3,11,2.2,15.5c0.9,4.5,1.9,8.1,2.9,10.8 c1,2.6,2.1,4,3.1,4c1,0,2.1-1.3,3.2-4c1.1-2.6,2.1-6.2,2.9-10.8c0.9-4.5,1.6-9.7,2.2-15.5C1097.2,145.9,1097.5,139.7,1097.5,133.3z "></path> <path class="st2" d="M1145.3,193.1v-80.5l-18.6-18.1v98.6h-9V73.3l27.7,26.4V73.3h9v119.8H1145.3z"></path> </g> <g> </g> <g> </g> <g> </g> <g> </g> <g> </g> <g> </g> <g> </g> <g> </g> <g> </g> <g> </g> <g> </g> <g> </g> <g> </g> <g> </g> <g> </g> </svg> 